<?xml version="1.0" encoding="UTF-8" standalone="no"?>
<!DOCTYPE svg PUBLIC "-//W3C//DTD SVG 20010904//EN"
              "http://www.w3.org/TR/2001/REC-SVG-20010904/DTD/svg10.dtd">

<svg xmlns="http://www.w3.org/2000/svg"
     viewBox="40 0 515 240">
  <path id="Selection"
        fill="#3ee7cd" stroke="#3ee7cd" stroke-width="1"
        d="M 105.00,92.00
           C 105.00,92.00 147.00,81.80 147.00,81.80
             179.81,75.14 205.66,71.06 239.00,67.83
             239.00,67.83 265.00,66.00 265.00,66.00
             265.00,66.00 302.00,65.00 302.00,65.00
             302.00,65.00 325.00,66.00 325.00,66.00
             325.00,66.00 339.00,66.93 339.00,66.93
             363.08,68.10 387.20,71.31 411.00,75.28
             411.00,75.28 430.00,79.49 430.00,79.49
             430.00,79.49 463.00,86.47 463.00,86.47
             463.00,86.47 485.00,92.00 485.00,92.00
             485.00,92.00 501.00,36.00 501.00,36.00
             501.00,36.00 466.00,26.88 466.00,26.88
             466.00,26.88 414.00,16.59 414.00,16.59
             414.00,16.59 393.00,13.58 393.00,13.58
             393.00,13.58 380.00,12.00 380.00,12.00
             380.00,12.00 377.00,17.00 377.00,17.00
             377.00,17.00 378.00,12.00 378.00,12.00
             378.00,12.00 344.00,8.91 344.00,8.91
             344.00,8.91 334.00,8.00 334.00,8.00
             334.00,8.00 310.00,7.00 310.00,7.00
             310.00,7.00 278.00,7.00 278.00,7.00
             278.00,7.00 256.00,8.00 256.00,8.00
             256.00,8.00 246.00,8.91 246.00,8.91
             216.45,10.93 187.15,14.18 158.00,19.80
             158.00,19.80 109.00,30.79 109.00,30.79
             105.71,31.53 92.49,34.01 91.04,36.31
             89.07,39.42 92.57,48.47 93.58,52.00
             93.58,52.00 105.00,92.00 105.00,92.00 Z
           M 301.00,36.00
           C 302.98,29.24 302.51,22.63 308.13,17.21
             316.25,9.39 325.64,13.56 326.00,25.00
             319.75,22.84 321.43,16.89 315.96,17.58
             305.69,18.86 304.31,37.29 307.01,45.00
             310.57,55.16 316.60,53.35 322.00,46.00
             322.00,46.00 326.00,47.00 326.00,47.00
             324.57,49.44 323.14,51.86 320.91,53.69
             318.68,55.51 316.82,55.96 314.00,55.96
             304.95,55.96 302.19,46.49 302.00,39.00
             298.32,47.06 299.41,46.00 284.00,46.00
             289.38,54.93 290.80,51.49 299.00,50.00
             296.93,56.28 289.01,57.94 284.21,53.69
             280.26,50.19 278.71,44.02 278.00,39.00
             276.54,43.78 276.07,51.00 272.44,54.57
             268.39,58.56 262.76,56.78 259.39,52.89
             255.06,47.90 254.99,40.25 255.00,34.00
             255.01,28.48 255.46,21.53 259.42,17.23
             261.13,15.36 263.42,14.17 266.00,14.25
             274.20,14.51 276.68,25.54 277.00,32.00
             278.51,27.47 279.35,22.04 282.13,18.10
             285.83,12.85 291.91,11.38 296.03,17.11
             299.32,21.67 300.55,30.42 301.00,36.00 Z
           M 350.00,38.00
           C 350.00,38.00 351.91,25.00 351.91,25.00
             351.91,25.00 353.02,18.59 353.02,18.59
             353.02,18.59 356.00,17.00 356.00,17.00
             356.00,17.00 353.00,55.00 353.00,55.00
             356.84,55.37 358.50,55.16 360.00,59.00
             357.59,59.00 352.46,59.32 350.57,57.83
             348.40,56.10 350.00,44.37 350.00,41.00
             348.68,44.52 347.35,50.08 345.30,52.96
             340.17,60.18 332.55,58.54 328.92,51.00
             325.92,44.76 326.89,35.60 328.29,29.00
             329.60,22.80 333.30,14.29 341.00,15.16
             343.34,15.43 344.86,16.33 346.35,18.15
             350.53,23.25 350.00,31.79 350.00,38.00 Z
           M 242.00,47.00
           C 242.00,47.00 253.00,54.00 253.00,54.00
             253.00,54.00 253.00,56.00 253.00,56.00
             246.65,57.13 241.10,52.33 236.00,49.00
             236.00,49.00 235.00,59.00 235.00,59.00
             235.00,59.00 233.00,59.00 233.00,59.00
             233.00,59.00 231.00,40.00 231.00,40.00
             229.00,47.03 230.72,62.24 218.00,60.85
             215.65,60.59 214.98,60.04 213.00,59.00
             213.00,59.00 212.00,62.00 212.00,62.00
             212.00,62.00 210.00,62.00 210.00,62.00
             204.99,52.92 205.35,56.00 193.00,57.00
             192.94,61.47 193.58,63.40 189.00,65.00
             189.00,65.00 192.00,21.00 192.00,21.00
             198.28,22.08 198.51,25.69 200.86,31.00
             204.06,38.23 210.33,50.89 212.00,58.00
             219.95,55.06 223.94,60.05 226.00,47.00
             223.92,48.79 221.82,50.83 219.00,51.32
             214.74,52.07 211.06,48.36 209.29,45.00
             205.33,38.62 204.70,28.11 209.29,22.11
             212.39,18.50 222.51,15.65 226.07,19.60
             227.60,21.31 227.80,24.80 228.05,27.00
             228.65,32.31 228.95,32.26 229.00,38.00
             229.00,38.00 229.00,18.00 229.00,18.00
             236.87,18.26 241.61,13.94 247.89,17.45
             256.46,22.25 254.24,40.36 242.00,47.00 Z
           M 282.00,42.00
           C 282.00,42.00 297.00,42.00 297.00,42.00
             297.00,36.46 297.00,20.57 290.90,18.17
             287.54,16.85 285.15,20.42 283.97,23.00
             281.42,28.58 282.00,35.95 282.00,42.00 Z
           M 387.00,36.00
           C 390.33,28.94 393.41,21.06 403.00,22.23
             406.19,22.61 408.61,24.23 410.83,24.67
             413.62,25.21 416.54,23.56 417.84,25.56
             420.22,29.21 413.27,28.27 412.00,28.00
             412.00,28.00 412.00,32.00 412.00,32.00
             412.00,32.00 417.00,30.00 417.00,30.00
             417.00,30.00 415.00,43.00 415.00,43.00
             417.76,37.35 420.76,31.50 427.00,29.01
             435.01,25.80 442.75,31.96 440.00,42.00
             440.00,42.00 438.00,42.00 438.00,42.00
             437.33,39.83 436.62,35.93 435.26,34.31
             431.58,29.92 426.16,33.72 423.39,37.04
             418.27,43.17 413.28,60.03 422.11,65.16
             427.25,68.15 428.56,62.02 436.00,63.00
             431.74,68.62 422.33,73.74 416.70,66.77
             414.32,63.84 413.68,57.76 413.00,54.00
             411.42,58.78 412.03,64.19 407.00,66.00
             407.00,66.00 409.00,49.00 409.00,49.00
             405.94,55.93 402.19,67.39 392.00,63.96
             389.83,63.23 388.78,62.30 387.00,61.00
             391.69,56.87 391.71,60.84 396.00,60.11
             399.84,59.45 401.71,55.18 403.00,52.00
             391.63,59.49 387.50,50.26 387.00,40.00
             384.83,46.57 384.26,55.19 377.96,59.40
             372.97,62.73 367.04,60.14 364.56,54.98
             361.97,49.20 362.93,40.02 364.56,34.00
             366.21,27.24 373.77,12.41 382.36,20.65
             385.95,24.09 386.78,31.27 387.00,36.00 Z
           M 264.21,18.79
           C 257.33,23.26 257.26,36.88 259.44,44.00
             260.57,47.67 263.75,54.63 268.78,51.93
             271.20,50.64 272.15,47.47 272.76,45.00
             274.43,38.28 274.44,17.72 264.21,18.79 Z
           M 339.07,18.96
           C 331.18,22.95 330.19,36.11 331.18,44.00
             331.60,47.31 333.61,53.57 337.98,52.95
             341.02,52.51 343.20,48.58 344.19,46.00
             346.56,39.81 348.63,19.35 339.07,18.96 Z
           M 235.00,45.00
           C 248.63,43.42 251.90,26.72 246.35,21.74
             243.07,18.79 234.20,19.01 234.00,30.00
             234.00,30.00 235.00,45.00 235.00,45.00 Z
           M 223.00,22.16
           C 220.61,21.80 218.37,21.45 216.04,22.16
             208.07,25.28 208.73,39.40 213.57,44.77
             218.62,50.39 222.26,45.23 223.47,40.00
             223.96,37.92 223.97,36.11 224.00,34.00
             224.06,28.37 223.99,27.51 223.00,22.16 Z
           M 375.10,23.13
           C 368.24,28.18 366.82,37.99 367.01,46.00
             367.11,49.80 367.73,54.99 372.04,56.34
             376.15,57.63 378.70,53.09 380.10,50.00
             382.39,44.93 383.60,35.49 382.53,30.00
             381.63,25.36 380.28,22.26 375.10,23.13 Z
           M 162.00,27.00
           C 162.00,27.00 171.00,70.00 171.00,70.00
             171.00,70.00 168.00,62.00 168.00,62.00
             166.80,64.24 165.06,68.00 163.45,69.77
             158.29,75.44 151.89,72.64 148.27,66.98
             143.48,59.50 141.09,47.63 143.35,39.00
             144.67,33.93 147.69,29.72 153.00,28.42
             155.72,27.75 157.75,28.77 160.00,27.00
             160.00,27.00 162.00,27.00 162.00,27.00 Z
           M 398.09,26.85
           C 392.18,30.48 390.54,36.33 391.09,43.00
             391.32,45.78 392.08,49.20 395.13,50.16
             398.04,51.06 400.44,49.10 402.03,46.89
             404.00,44.18 405.22,40.20 406.14,37.00
             408.29,29.49 408.03,24.15 398.09,26.85 Z
           M 152.02,30.74
           C 141.78,36.38 143.34,51.75 147.34,61.00
             149.01,64.87 151.51,69.56 156.00,70.53
             161.72,71.75 164.25,66.64 165.32,62.00
             166.78,55.68 164.38,45.35 162.73,39.00
             162.09,36.53 161.59,33.34 159.57,31.60
             157.22,29.57 154.71,30.12 152.02,30.74 Z
           M 195.00,31.00
           C 195.00,31.00 193.00,53.00 193.00,53.00
             193.00,53.00 205.00,51.00 205.00,51.00
             203.41,45.41 199.03,35.04 195.00,31.00 Z
           M 468.00,38.00
           C 468.00,38.00 460.00,68.00 460.00,68.00
             458.70,72.50 458.76,76.30 454.00,78.00
             454.00,78.00 454.00,73.00 454.00,73.00
             445.54,78.58 438.09,75.27 437.19,65.00
             436.29,54.84 442.30,38.02 453.00,34.94
             458.89,33.25 462.68,36.02 468.00,38.00 Z
           M 125.00,36.00
           C 125.00,36.00 133.58,64.00 133.58,64.00
             134.41,66.86 135.76,73.38 138.42,74.89
             140.89,76.29 148.75,73.50 152.00,73.00
             149.23,76.36 140.37,77.72 136.00,79.00
             136.00,79.00 127.28,50.00 127.28,50.00
             125.90,45.43 123.28,40.71 125.00,36.00 Z
           M 414.00,44.00
           C 414.00,44.00 414.00,45.00 414.00,45.00
             414.00,45.00 415.00,44.00 415.00,44.00
             415.00,44.00 414.00,44.00 414.00,44.00 Z
           M 491.00,97.00
           C 491.00,97.00 445.00,97.00 445.00,97.00
             449.48,100.87 463.74,105.06 470.00,107.42
             470.00,107.42 527.00,128.00 527.00,128.00
             527.00,128.00 525.80,108.00 525.80,108.00
             525.13,104.59 524.27,98.34 525.80,95.29
             529.71,88.88 546.64,81.03 551.00,72.00
             551.00,72.00 519.00,60.81 519.00,60.81
             516.46,59.85 507.48,56.18 505.28,56.81
             502.37,57.63 501.20,64.32 500.33,67.00
             500.33,67.00 491.00,97.00 491.00,97.00 Z
           M 42.00,72.00
           C 42.00,72.00 64.96,96.00 64.96,96.00
             64.96,96.00 64.96,106.00 64.96,106.00
             64.96,106.00 64.96,128.00 64.96,128.00
             64.96,128.00 92.00,118.01 92.00,118.01
             92.00,118.01 143.00,97.00 143.00,97.00
             137.36,94.76 129.27,96.97 123.00,97.00
             123.00,97.00 99.00,97.00 99.00,97.00
             99.00,97.00 85.00,57.00 85.00,57.00
             85.00,57.00 42.00,72.00 42.00,72.00 Z" />
</svg>
