<?xml version="1.0" encoding="UTF-8" standalone="no"?>
<svg
   xmlns:dc="http://purl.org/dc/elements/1.1/"
   xmlns:cc="http://creativecommons.org/ns#"
   xmlns:rdf="http://www.w3.org/1999/02/22-rdf-syntax-ns#"
   xmlns:svg="http://www.w3.org/2000/svg"
   xmlns="http://www.w3.org/2000/svg"
   xmlns:sodipodi="http://sodipodi.sourceforge.net/DTD/sodipodi-0.dtd"
   xmlns:inkscape="http://www.inkscape.org/namespaces/inkscape"
   id="Capa_1"
   data-name="Capa 1"
   viewBox="0 0 57.599997 19.499999"
   version="1.1"
   sodipodi:docname="laagroecologica.svg"
   inkscape:version="0.92.5 (2060ec1f9f, 2020-04-08)">
  <metadata
     id="metadata1957">
    <rdf:RDF>
      <cc:Work
         rdf:about="">
        <dc:format>image/svg+xml</dc:format>
        <dc:type
           rdf:resource="http://purl.org/dc/dcmitype/StillImage" />
        <dc:title />
      </cc:Work>
    </rdf:RDF>
  </metadata>
  <sodipodi:namedview
     pagecolor="#ffffff"
     bordercolor="#666666"
     borderopacity="1"
     objecttolerance="10"
     gridtolerance="10"
     guidetolerance="10"
     inkscape:pageopacity="0"
     inkscape:pageshadow="2"
     inkscape:window-width="2560"
     inkscape:window-height="1361"
     id="namedview1955"
     showgrid="false"
     inkscape:zoom="15.470841"
     inkscape:cx="54.629331"
     inkscape:cy="2.1571019"
     inkscape:window-x="-9"
     inkscape:window-y="-9"
     inkscape:window-maximized="1"
     inkscape:current-layer="Capa_1" />
  <defs
     id="defs4">
    <style
       id="style2">.cls-1,.cls-4{fill:none;}.cls-2{fill:#397559;}.cls-3{fill:#59371f;}.cls-4{stroke:#fff;stroke-linecap:round;stroke-linejoin:round;stroke-width:0;}.cls-5{fill:#9b1b1b;}.cls-6{fill:#8c2c2c;}.cls-7{fill:#8d2c2c;}</style>
  </defs>
  <g
     id="g2345"
     transform="matrix(0.09402278,0,0,0.09402278,27.120721,10.070295)">
    <path
       style="fill:#397559"
       inkscape:connector-curvature="0"
       id="path74"
       d="m 302.03121,53.271737 c -2.92,-3.06 -5.82,-6.14 -8.62,-9.29 a 72.27,72.27 0 0 1 -5.73,-7 1,1 0 0 1 0.59,-1.45 l 2.63,-0.85 q 16.17,-5.24 32.38,-10.35 v 0 c -2.17,-0.83 -4.36,-1.61 -6.55,-2.39 -9.05,-3.19 -18.19,-6.14 -27.35,-9 -4.91,-1.53 -9.82,-3.0899998 -14.79,-4.3999998 -2.23,-0.59 -4.47,-1.14 -6.71,-1.69 l -6.51,27.9999998 -0.91,4.07 -39.87,9.83 c 2.2,0.28 4.41,0.56 6.61,0.86 8.31,1.11 16.62,2.29 24.9,3.6 8.28,1.31 16.86,2.77 25.18,4.7 a 334.61,334.61 0 0 1 32.38,9.4 c 3.2,1.1 6.39,2.23 9.56,3.43 -0.09,-0.1 -0.19,-0.19 -0.29,-0.29 q -8.55,-8.47 -16.9,-17.18 z"
       class="cls-2" />
    <path
       style="fill:#397559"
       inkscape:connector-curvature="0"
       id="path76"
       d="m -232.10879,10.621737 c -3.28,0.85 -6.56,1.73 -9.82,2.71 -5.47,1.64 -10.88,3.52 -16.29,5.36 -8.33,2.82 -16.64,5.72 -24.86,8.86 -1.54,0.59 -3.08,1.2 -4.62,1.81 l 9.11,2.68 q 13.08,3.87 26.13,7.8 a 1,1 0 0 1 0.59,1.45 79.11,79.11 0 0 1 -6.52,8.19 c -5.72,6.59 -11.72,12.94 -17.72,19.27 -2.22,2.34 -4.47,4.66 -6.72,7 4.13,-1.66 8.3,-3.21 12.49,-4.71 a 314.22,314.22 0 0 1 32.6,-9.83 c 8.16,-1.95 16.43,-3.46 24.69,-4.91 8,-1.4 16,-2.69 24,-3.92 q 4.44,-0.68 8.89,-1.32 l -45.67,-11.37 c -0.1,-0.64 -1.07,-4.94 -6.28,-29.07 z"
       class="cls-2" />
    <path
       style="fill:#397559"
       inkscape:connector-curvature="0"
       id="path78"
       d="m 257.52121,34.071737 c -4.32,-1.15 -17.11,-4.43 -38.7,-8.83 l -0.3,1.55 -3.75,20.14 42.21,-10.43 z"
       class="cls-2" />
    <path
       style="fill:#397559"
       inkscape:connector-curvature="0"
       id="path80"
       d="m -218.27879,37.341737 38.79,9.59 -3.15,-17 c -15.59,2.91 -29.07,5.62 -35.64,7.41 z"
       class="cls-2" />
    <path
       style="fill:#397559"
       inkscape:connector-curvature="0"
       id="path82"
       d="m -41.108786,-29.808263 v -0.66 a 5.09,5.09 0 0 0 -1.84,0.52 v 0.52 c 0.5,0.11 1.13,0.29 1.86,0.52 z"
       class="cls-2" />
    <path
       style="fill:#397559"
       inkscape:connector-curvature="0"
       id="path84"
       d="m -41.258786,-33.648263 h -0.1 a 18.33,18.33 0 0 1 -1.9,-0.09 c 0,0.56 0.09,1.16 0.14,1.8 a 6.29,6.29 0 0 1 1.89,-0.43 z"
       class="cls-2" />
    <path
       style="fill:#397559"
       inkscape:connector-curvature="0"
       id="path86"
       d="m -42.408786,-20.248263 0.08,1.23 c 0.63,0 1.28,-0.11 1.94,-0.19 l -0.12,-1 c -1.01,0.01 -1.6,-0.04 -1.9,-0.04 z"
       class="cls-2" />
    <path
       style="fill:#397559"
       inkscape:connector-curvature="0"
       id="path88"
       d="m -41.408786,-35.548263 h 0.1 c -0.06,-0.91 -0.09,-1.75 -0.11,-2.51 a 4.42,4.42 0 0 0 -2.05,1.47 0.19,0.19 0 0 0 -0.05,0.1 l 0.07,0.85 a 16.26,16.26 0 0 0 2.04,0.09 z"
       class="cls-2" />
    <path
       style="fill:#397559"
       inkscape:connector-curvature="0"
       id="path90"
       d="m -40.828786,-23.788263 a 10,10 0 0 0 -1.36,0.6 0.92,0.92 0 0 1 -0.38,0.11 l 0.07,0.9 a 18,18 0 0 0 1.81,0.09 z"
       class="cls-2" />
    <path
       style="fill:#397559"
       inkscape:connector-curvature="0"
       id="path92"
       d="m -40.998786,-26.918263 a 15.71,15.71 0 0 0 -1.82,-0.52 l 0.15,2.37 a 8.54,8.54 0 0 1 1.74,-0.66 c -0.04,-0.38 -0.06,-0.78 -0.07,-1.19 z"
       class="cls-2" />
    <path
       style="fill:#397559"
       inkscape:connector-curvature="0"
       id="path94"
       d="m -57.488786,-19.248263 a 7.42,7.42 0 0 1 1.83,-0.41 10.67,10.67 0 0 0 0.17,-1.54 l -2.2,-1.5 c 0.09,1.23 0.16,2.38 0.2,3.45 z"
       class="cls-2" />
    <path
       style="fill:#397559"
       inkscape:connector-curvature="0"
       id="path96"
       d="m -55.558786,-29.988263 -0.9,0.06 a 9.82,9.82 0 0 0 -2.12,0.35 l 0.18,1.17 a 21.78,21.78 0 0 0 3,0.54 c -0.03,-0.69 -0.08,-1.38 -0.16,-2.12 z"
       class="cls-2" />
    <path
       style="fill:#397559"
       inkscape:connector-curvature="0"
       id="path98"
       d="m -55.698786,-31.888263 c -0.07,-0.53 -0.13,-1.05 -0.16,-1.55 a 2,2 0 0 1 -0.43,0 20.07,20.07 0 0 1 -2.43,-0.63 l -0.58,-0.2 0.44,2.82 a 11.58,11.58 0 0 1 2.26,-0.35 z"
       class="cls-2" />
    <path
       style="fill:#397559"
       inkscape:connector-curvature="0"
       id="path100"
       d="m -56.108786,-35.328263 c -0.22,-1.72 -0.49,-3.42 -0.8,-5.08 l -2.65,3.53 -0.08,0.1 v 0.47 l 1.51,0.42 c 0.9,0.28 1.57,0.47 2.02,0.56 z"
       class="cls-2" />
    <path
       style="fill:#397559"
       inkscape:connector-curvature="0"
       id="path102"
       d="m -57.788786,-13.658263 c 0.14,-0.2 0.29,-0.38 0.43,-0.55 a 11.53,11.53 0 0 0 1.37,-3.48 3.62,3.62 0 0 0 -1.49,0.54 26.8,26.8 0 0 1 -0.31,3.49 z"
       class="cls-2" />
    <path
       style="fill:#397559"
       inkscape:connector-curvature="0"
       id="path104"
       d="m -16.248786,-22.558263 a 15.09,15.09 0 0 1 -1.62,-0.47 5.2,5.2 0 0 0 1.66,1.7 v -1.23 z"
       class="cls-2" />
    <path
       style="fill:#397559"
       inkscape:connector-curvature="0"
       id="path106"
       d="m -43.928786,-39.898263 0.12,1 a 8.22,8.22 0 0 1 1.73,-0.95 11.84,11.84 0 0 1 -1.85,-0.05 z"
       class="cls-2" />
    <path
       style="fill:#397559"
       inkscape:connector-curvature="0"
       id="path108"
       d="m 18.111214,-35.148263 c 1,0 1.9,0 2.56,0 a 5.65,5.65 0 0 0 -1.87,-3.84 5.17,5.17 0 0 0 -3.66,-1.26 7.42,7.42 0 0 0 -1.23,0.17 c 0,1.36 -0.08,3 -0.16,5 a 0.53,0.53 0 0 1 0.23,0 z"
       class="cls-2" />
    <path
       style="fill:#397559"
       inkscape:connector-curvature="0"
       id="path110"
       d="m 8.7212143,-35.318263 a 12,12 0 0 0 -0.8,2.74 c 0,0.1 -0.06,0.21 -0.1,0.33 l 2.7699997,-1 0.05,-0.24 a 1.17,1.17 0 0 1 -0.33,-0.24 z"
       class="cls-2" />
    <path
       style="fill:#397559"
       inkscape:connector-curvature="0"
       id="path112"
       d="m 10.721214,-35.958263 c 0,-0.88 0.07,-1.69 0.08,-2.41 a 9.65,9.65 0 0 0 -1.1599997,1.36 z"
       class="cls-2" />
    <path
       style="fill:#397559"
       inkscape:connector-curvature="0"
       id="path114"
       d="m -19.198786,-27.018263 a 9.25,9.25 0 0 0 0.33,1.71 c 0.29,0.09 0.65,0.21 1.09,0.33 l 1.57,0.47 c 0,-1 0.06,-2 0.09,-3.18 l -0.95,0.2 z"
       class="cls-2" />
    <path
       style="fill:#397559"
       inkscape:connector-curvature="0"
       id="path116"
       d="m 7.6412143,-29.348263 h 2.6099997 0.19 c 0,-0.38 0,-0.77 0.06,-1.18 v -0.72 l -2.8599997,1.05 z"
       class="cls-2" />
    <path
       style="fill:#397559"
       inkscape:connector-curvature="0"
       id="path118"
       d="m 33.571214,-29.438263 2.66,-0.08 0.07,-0.9 -2.29,-1.38 a 16.06,16.06 0 0 0 -0.44,2.36 z"
       class="cls-2" />
    <path
       style="fill:#397559"
       inkscape:connector-curvature="0"
       id="path120"
       d="m 34.071214,-24.448263 v 0 c 0.09,0.16 0.36,0.55 0.82,1.16 0.31,0.39 0.6,0.73 0.88,1 0,-0.51 0,-1.05 0.09,-1.61 a 0.53,0.53 0 0 1 -0.24,-0.06 9.11,9.11 0 0 1 -1.55,-0.49 z"
       class="cls-2" />
    <path
       style="fill:#397559"
       inkscape:connector-curvature="0"
       id="path122"
       d="m 33.551214,-26.688263 a 0.49,0.49 0 0 0 0.19,0.05 c 0.88,0.37 1.62,0.66 2.21,0.86 0.05,-0.57 0.09,-1.18 0.14,-1.85 -0.47,0 -1.33,0 -2.56,0.08 a 8.23,8.23 0 0 0 0.02,0.86 z"
       class="cls-2" />
    <path
       style="fill:#397559"
       inkscape:connector-curvature="0"
       id="path124"
       d="m 7.8112143,-27.448263 c 0.08,0.57 0.19,1.12 0.31,1.66 a 10.85,10.85 0 0 1 2.2399997,-1.06 v -0.57 h -0.14 z"
       class="cls-2" />
    <path
       style="fill:#397559"
       inkscape:connector-curvature="0"
       id="path126"
       d="m -15.938786,-37.358263 c 0,-0.51 0.05,-1 0.05,-1.43 a 9.63,9.63 0 0 0 -1.19,1.71 z"
       class="cls-2" />
    <path
       style="fill:#397559"
       inkscape:connector-curvature="0"
       id="path128"
       d="m -18.538786,-33.608263 a 21.1,21.1 0 0 0 2.51,1.09 c 0,-1.11 0.06,-2.08 0.09,-2.9 a 22.59,22.59 0 0 0 -2.22,0.72 z"
       class="cls-2" />
    <path
       style="fill:#397559"
       inkscape:connector-curvature="0"
       id="path130"
       d="m -18.968786,-31.708263 a 17,17 0 0 0 -0.33,2.79 l 1.85,-0.42 1.38,-0.29 v -1 a 20.54,20.54 0 0 1 -2.9,-1.08 z"
       class="cls-2" />
    <path
       style="fill:#397559"
       inkscape:connector-curvature="0"
       id="path132"
       d="m -8.7287857,-41.168263 -0.67,-0.11 -0.6100003,-0.12 -0.52,-0.1 a 4.27,4.27 0 0 0 -0.55,0 h -0.45 l -0.48,0.07 q -0.37,0.11 -0.75,0.24 0,3.42 -0.21,10.32 -0.21,6.9 -0.14,10.39 h 0.71 a 7.87,7.87 0 0 0 6.2100003,-2.19 9.42,9.42 0 0 0 2.46,-5.84 15.46,15.46 0 0 0 -1,-7 13,13 0 0 0 -4,-5.66 z"
       class="cls-2" />
    <path
       style="fill:#397559"
       inkscape:connector-curvature="0"
       id="path134"
       d="m -59.958786,-40.658263 -0.17,0.3 c 0,0.31 0.06,0.63 0.12,0.94 l 1.17,-1.61 z"
       class="cls-2" />
    <path
       style="fill:#397559"
       inkscape:connector-curvature="0"
       id="path136"
       d="m 10.331214,-24.808263 a 9.09,9.09 0 0 0 -1.4299997,0.79 h -0.01 l 0.42,0.62 a 7.3,7.3 0 0 0 1.0799997,1.15 c -0.06,-0.79 -0.07,-1.64 -0.06,-2.56 z"
       class="cls-2" />
    <path
       style="fill:#397559"
       inkscape:connector-curvature="0"
       id="path138"
       d="m -131.16879,-31.608263 -0.06,-0.47 c -1.17,0.14 -1.95,0.22 -2.36,0.24 v 0.33 c 0.57,-0.05 1.17,-0.12 1.79,-0.21 a 0.9,0.9 0 0 1 0.63,0.11 z"
       class="cls-2" />
    <path
       style="fill:#397559"
       inkscape:connector-curvature="0"
       id="path140"
       d="m -135.46879,-20.068263 c -0.13,-1.1 -0.3,-2.91 -0.53,-5.41 -0.23,-2.5 -0.42,-4.44 -0.58,-5.79 a 10.33,10.33 0 0 0 -4.05,0.52 9,9 0 0 0 -4.23,4.46 14.05,14.05 0 0 0 -1.46,6.75 8.78,8.78 0 0 0 1.89,5.62 6,6 0 0 0 5.32,2 10.65,10.65 0 0 0 4.78,-1.4 l -0.3,-1.44 a 52.86,52.86 0 0 1 -0.84,-5.31 z"
       class="cls-2" />
    <path
       style="fill:#397559"
       inkscape:connector-curvature="0"
       id="path142"
       d="m 34.581214,-33.688263 c 0.4,0.26 1,0.64 1.87,1.14 0.05,-0.66 0.08,-1.28 0.09,-1.85 a 17.6,17.6 0 0 0 -1.86,0.38 z"
       class="cls-2" />
    <path
       style="fill:#397559"
       inkscape:connector-curvature="0"
       id="path144"
       d="m -176.61879,-5.6382628 c -0.53,-0.1 -0.9,-0.19 -1.1,-0.25 0.11,0.85 0.19,1.61 0.24,2.27 0.88,-0.12 2,-0.3 3.27,-0.56 -0.12,-0.36 -0.24,-0.74 -0.34,-1.14 -0.48,-0.05 -1.18,-0.15 -2.07,-0.32 z"
       class="cls-2" />
    <path
       style="fill:#397559"
       inkscape:connector-curvature="0"
       id="path146"
       d="m -175.10879,-7.2482628 q -0.27,-1.3 -0.54,-3.1800002 c -1.12,0.6100002 -2,1.0000002 -2.62,1.3100002 l 0.24,1.36 c 0.42,0.05 1,0.14 1.78,0.27 q 0.83,0.15 1.14,0.24 z"
       class="cls-2" />
    <path
       style="fill:#397559"
       inkscape:connector-curvature="0"
       id="path148"
       d="m -130.31879,-22.958263 -0.25,-0.06 -2.21,-0.69 c 0.09,0.85 0.16,1.6 0.23,2.27 a 8.48,8.48 0 0 1 2.27,-1.24 z"
       class="cls-2" />
    <path
       style="fill:#397559"
       inkscape:connector-curvature="0"
       id="path150"
       d="m -130.76879,-27.828263 a 7.69,7.69 0 0 0 -2.18,1.55 0.12,0.12 0 0 1 -0.09,0.06 l 0.06,0.43 c 0.17,0.07 1,0.34 2.46,0.8 z"
       class="cls-2" />
    <path
       style="fill:#397559"
       inkscape:connector-curvature="0"
       id="path152"
       d="m -130.98879,-30.048263 a 0.93,0.93 0 0 1 -0.5,0.21 c -0.66,0.1 -1.27,0.17 -1.84,0.22 l 0.11,1.08 a 9.69,9.69 0 0 1 2.26,-1.28 z"
       class="cls-2" />
    <path
       style="fill:#397559"
       inkscape:connector-curvature="0"
       id="path154"
       d="m -176.84879,-17.968263 v 0 l -1.85,0.12 h -0.44 c 0,0.6 0.11,1.28 0.2,2 q 1.37,0.11 2.55,0.24 z"
       class="cls-2" />
    <path
       style="fill:#397559"
       inkscape:connector-curvature="0"
       id="path156"
       d="m -178.55879,-28.848263 c -0.09,-0.66 -0.18,-1.31 -0.29,-2 -0.94,0.13 -1.8,0.21 -2.56,0.25 0.14,0.45 0.27,0.94 0.4,1.47 a 9.48,9.48 0 0 1 2.45,0.28 z"
       class="cls-2" />
    <path
       style="fill:#397559"
       inkscape:connector-curvature="0"
       id="path158"
       d="m -179.19879,-33.408263 c -1,0.11 -2,0.27 -3.09,0.49 a 3,3 0 0 0 0.23,0.49 27,27 0 0 0 3,-0.27 z"
       class="cls-2" />
    <path
       style="fill:#397559"
       inkscape:connector-curvature="0"
       id="path160"
       d="m -175.91879,-12.248263 c -0.07,-0.57 -0.13,-1 -0.19,-1.36 -0.82,-0.12 -1.72,-0.21 -2.69,-0.27 l 0.12,1.28 c 0,0.48 0.1,1 0.16,1.52 0.48,-0.25 1.12,-0.6 1.94,-1.06 a 1.25,1.25 0 0 1 0.66,-0.11 z"
       class="cls-2" />
    <path
       style="fill:#397559"
       inkscape:connector-curvature="0"
       id="path162"
       d="m -177.89879,-24.678263 c -0.12,-0.71 -0.23,-1.43 -0.32,-2.15 a 0.46,0.46 0 0 0 -0.2,0 13.76,13.76 0 0 0 -2.17,-0.35 c 0.22,1 0.42,2 0.59,3.22 a 21.15,21.15 0 0 0 2,-0.69 z"
       class="cls-2" />
    <path
       style="fill:#397559"
       inkscape:connector-curvature="0"
       id="path164"
       d="m -130.10879,-20.638263 v -0.05 a 7.09,7.09 0 0 0 -1.76,1.11 1,1 0 0 1 -0.5,0.22 l 0.1,0.65 c 0.45,0 1.28,0.16 2.49,0.37 -0.14,-0.84 -0.25,-1.61 -0.33,-2.3 z"
       class="cls-2" />
    <path
       style="fill:#397559"
       inkscape:connector-curvature="0"
       id="path166"
       d="m -177.16879,-19.838263 c -0.14,-1 -0.28,-1.94 -0.45,-2.91 -0.58,0.19 -1.28,0.41 -2.1,0.65 l 0.3,2.35 h 0.58 z"
       class="cls-2" />
    <path
       style="fill:#397559"
       inkscape:connector-curvature="0"
       id="path168"
       d="m -96.908786,-39.018263 c -1.26,-0.21 -2.22,-0.4 -2.87,-0.55 l -0.06,3.1 q 0.48,0 2.85,-0.15 z"
       class="cls-2" />
    <path
       style="fill:#397559"
       inkscape:connector-curvature="0"
       id="path170"
       d="m -129.44879,-16.468263 a 2,2 0 0 1 -0.43,0 c -1.28,-0.2 -1.95,-0.3 -2,-0.29 0,0.28 0.1,0.61 0.19,1 h 0.14 c 0.78,-0.14 1.51,-0.26 2.2,-0.36 z"
       class="cls-2" />
    <path
       style="fill:#397559"
       inkscape:connector-curvature="0"
       id="path172"
       d="m -97.338786,-22.248263 c -1.18,0 -2.25,-0.09 -3.220004,-0.18 l -0.09,1.34 c 1.000004,-0.13 2.090004,-0.31 3.370004,-0.54 z"
       class="cls-2" />
    <path
       style="fill:#397559"
       inkscape:connector-curvature="0"
       id="path174"
       d="m -97.498786,-25.168263 c -0.64,0 -1.6,0 -2.880004,-0.12 l -0.09,1 c 0.930004,0.06 1.940004,0.1 3.000004,0.11 0.02,-0.36 0,-0.67 -0.03,-0.99 z"
       class="cls-2" />
    <path
       style="fill:#397559"
       inkscape:connector-curvature="0"
       id="path176"
       d="m -97.508786,-27.078263 c 0,-0.79 0.08,-1.67 0.1,-2.63 a 13.32,13.32 0 0 0 -2.720004,0 l -0.16,2.55 a 24.27,24.27 0 0 0 2.780004,0.08 z"
       class="cls-2" />
    <path
       style="fill:#397559"
       inkscape:connector-curvature="0"
       id="path178"
       d="m -100.67879,-15.908263 c 0,0.63 0.09,1.24 0.15,1.84 0.35,0 0.920004,-0.13 1.740004,-0.28 a 22.2,22.2 0 0 1 2.2,-0.37 c -0.06,-0.51 -0.1,-1 -0.12,-1.61 z"
       class="cls-2" />
    <path
       style="fill:#397559"
       inkscape:connector-curvature="0"
       id="path180"
       d="m -94.108786,-32.868263 2.31,-0.24 -2.06,-5.94 q -0.06,2.1 -0.25,6.18 z"
       class="cls-2" />
    <path
       style="fill:#397559"
       inkscape:connector-curvature="0"
       id="path182"
       d="m -96.988786,-18.968263 -0.09,-0.81 c -1.4,0.25 -2.62,0.44 -3.660004,0.58 0,0.48 0,0.94 0,1.38 l 3.820004,-0.4 z"
       class="cls-2" />
    <path
       style="fill:#397559"
       inkscape:connector-curvature="0"
       id="path184"
       d="m -131.19879,-13.918263 h -0.14 v 0.19 a 16,16 0 0 1 2.53,0.6 q -0.06,-0.48 -0.21,-1.17 c -0.64,0.11 -1.37,0.23 -2.18,0.38 z"
       class="cls-2" />
    <path
       style="fill:#397559"
       inkscape:connector-curvature="0"
       id="path186"
       d="m -97.278786,-46.178263 c -0.85,0.09 -1.61,0.15 -2.27,0.19 l -0.06,1.29 c 0.63,-0.09 1.46,-0.2 2.5,-0.31 0,-0.41 -0.1,-0.8 -0.17,-1.17 z"
       class="cls-2" />
    <path
       style="fill:#397559"
       inkscape:connector-curvature="0"
       id="path188"
       d="m -130.78879,-11.008263 c 0.41,0 1,-0.08 1.85,-0.17 -0.71,-0.22 -1.37,-0.39 -2,-0.53 a 5.2,5.2 0 0 1 0.15,0.7 z"
       class="cls-2" />
    <path
       style="fill:#397559"
       inkscape:connector-curvature="0"
       id="path190"
       d="m -62.718786,-36.418263 c -0.17,-1.28 -0.31,-2.48 -0.43,-3.58 a 4.26,4.26 0 0 0 -2.94,1.36 12.44,12.44 0 0 0 -2.49,11.45 3.11,3.11 0 0 0 2.84,2.41 2.92,2.92 0 0 0 2.08,-0.55 8.81,8.81 0 0 0 1.86,-2.16 1.42,1.42 0 0 1 0.4,-0.41 c -0.13,-0.82 -0.33,-2.12 -0.62,-3.9 -0.29,-1.78 -0.52,-3.33 -0.7,-4.62 z"
       class="cls-2" />
    <path
       style="fill:#397559"
       inkscape:connector-curvature="0"
       id="path192"
       d="m -96.868786,-40.928263 c 0,-0.76 -0.05,-1.49 -0.09,-2.18 -1.13,0.11 -2,0.23 -2.73,0.33 l -0.06,1.29 a 0.56,0.56 0 0 1 0.24,0 c 0.62,0.18 1.5,0.36 2.64,0.56 z"
       class="cls-2" />
    <path
       style="fill:#397559"
       inkscape:connector-curvature="0"
       id="path194"
       d="m -97.318786,-31.628263 v 0 l 0.16,-3.07 c -1.33,0.08 -2.25,0.11 -2.76,0.1 0,0.64 0,1.24 -0.05,1.82 l -0.07,1.1 a 19,19 0 0 1 2.72012,0.05 z"
       class="cls-2" />
    <path
       style="fill:#397559"
       inkscape:connector-curvature="0"
       id="path196"
       d="m -58.108786,-26.378263 c 0,0.41 0.08,0.8 0.14,1.18 a 0.53,0.53 0 0 1 0.25,0.12 c 0.8,0.61 1.59,1.17 2.35,1.68 0,-0.82 0.06,-1.68 0.05,-2.57 h -0.23 c -1.09,-0.12 -1.94,-0.28 -2.56,-0.41 z"
       class="cls-2" />
    <polygon
       transform="translate(-367.10879,-166.24826)"
       style="fill:#397559"
       id="polygon198"
       points="527.33,131.53 527.25,132.19 528.17,131.63 "
       class="cls-2" />
    <path
       style="fill:#397559"
       inkscape:connector-curvature="0"
       id="path200"
       d="m 158.46121,-14.578263 -0.13,1.08 a 17.86,17.86 0 0 0 2.34,0.42 l 0.16,-2.18 a 10.29,10.29 0 0 0 -2.27,0.64 0.16,0.16 0 0 1 -0.1,0.04 z"
       class="cls-2" />
    <path
       style="fill:#397559"
       inkscape:connector-curvature="0"
       id="path202"
       d="m 172.89121,-16.488263 v 0 c 0.07,0.18 0.3,0.59 0.68,1.26 a 12.56,12.56 0 0 0 0.74,1.11 c 0.08,-0.5 0.17,-1 0.29,-1.59 a 0.48,0.48 0 0 1 -0.23,-0.08 10.87,10.87 0 0 1 -1.48,-0.7 z"
       class="cls-2" />
    <path
       style="fill:#397559"
       inkscape:connector-curvature="0"
       id="path204"
       d="m 158.70121,-16.698263 a 12.32,12.32 0 0 1 2.25,-0.46 8.93,8.93 0 0 0 0.07,-1 12,12 0 0 1 -2,-1.57 c -0.13,0.94 -0.19,1.96 -0.32,3.03 z"
       class="cls-2" />
    <path
       style="fill:#397559"
       inkscape:connector-curvature="0"
       id="path206"
       d="m 162.76121,-43.118263 -0.43,-0.38 a 1.22,1.22 0 0 1 -0.32,0 h -0.3 q -0.18,0.27 -0.42,0.72 c -0.44,0.74 -0.57,1.22 -0.41,1.43 0.16,0.21 0.43,0.19 0.94,0.16 a 2.23,2.23 0 0 0 1.46,-0.65 0.49,0.49 0 0 0 0,-0.66 2.3,2.3 0 0 0 -0.52,-0.62 z"
       class="cls-2" />
    <path
       style="fill:#397559"
       inkscape:connector-curvature="0"
       id="path208"
       d="m 159.63121,-26.378263 a 21.78,21.78 0 0 1 2.4,-0.06 c 0.09,-0.5 0.16,-1 0.22,-1.5 a 18.13,18.13 0 0 1 -2.43,-0.52 c -0.04,0.69 -0.11,1.39 -0.19,2.08 z"
       class="cls-2" />
    <path
       style="fill:#397559"
       inkscape:connector-curvature="0"
       id="path210"
       d="m 159.95121,-30.408263 a 13.14,13.14 0 0 0 2.61,0.59 c 0.15,-1.32 0.26,-2.55 0.33,-3.68 l -2.87,1.72 z"
       class="cls-2" />
    <path
       style="fill:#397559"
       inkscape:connector-curvature="0"
       id="path212"
       d="m 159.28121,-22.128263 a 0.81,0.81 0 0 1 0.13,0.11 c 0.75,0.73 1.37,1.29 1.86,1.7 0.13,-1.42 0.3,-2.83 0.49,-4.24 -0.7,0 -1.47,0 -2.3,0.07 z"
       class="cls-2" />
    <path
       style="fill:#397559"
       inkscape:connector-curvature="0"
       id="path214"
       d="m 144.52121,-22.308263 c 0,0.41 -0.05,0.81 0,1.19 a 0.6,0.6 0 0 1 0.22,0.16 c 0.71,0.71 1.41,1.38 2.09,2 0.16,-0.81 0.3,-1.66 0.42,-2.54 h -0.23 c -1.13,-0.31 -1.92,-0.58 -2.5,-0.81 z"
       class="cls-2" />
    <path
       style="fill:#397559"
       inkscape:connector-curvature="0"
       id="path216"
       d="m 144.09121,-15.158263 a 7.49,7.49 0 0 1 1.87,-0.15 10.44,10.44 0 0 0 0.39,-1.49 l -2,-1.81 q -0.09,1.85 -0.26,3.45 z"
       class="cls-2" />
    <path
       style="fill:#397559"
       inkscape:connector-curvature="0"
       id="path218"
       d="m 142.98121,-9.6682628 c 0.17,-0.18 0.34,-0.3400002 0.51,-0.4900002 a 11.66,11.66 0 0 0 1.85,-3.24 3.72,3.72 0 0 0 -1.54,0.31 28.58,28.58 0 0 1 -0.82,3.4200002 z"
       class="cls-2" />
    <path
       style="fill:#397559"
       inkscape:connector-curvature="0"
       id="path220"
       d="m 145.03121,-30.028263 -0.55,-0.27 v 2.85 a 11.26,11.26 0 0 1 2.28,0 l 0.9,0.06 c 0,-0.53 0,-1.06 0.07,-1.56 a 1.83,1.83 0 0 1 -0.43,-0.08 18.14,18.14 0 0 1 -2.27,-1 z"
       class="cls-2" />
    <path
       style="fill:#397559"
       inkscape:connector-curvature="0"
       id="path222"
       d="m 144.57121,-32.908263 -0.1,0.09 v 0.47 l 1.43,0.63 c 0.86,0.41 1.49,0.69 1.89,0.85 0,-1.75 0,-3.46 -0.05,-5.15 z"
       class="cls-2" />
    <path
       style="fill:#397559"
       inkscape:connector-curvature="0"
       id="path224"
       d="m 144.51121,-25.538263 v 1.19 a 21.71,21.71 0 0 0 2.88,1 c 0.08,-0.69 0.13,-1.4 0.15,-2.12 l -0.9,-0.07 a 9.79,9.79 0 0 0 -2.13,0 z"
       class="cls-2" />
    <path
       style="fill:#397559"
       inkscape:connector-curvature="0"
       id="path226"
       d="m 175.89121,-27.938263 h 1 c 0.08,-0.5 0.16,-1 0.26,-1.45 a 14.4,14.4 0 0 0 -1.26,1.45 z"
       class="cls-2" />
    <path
       style="fill:#397559"
       inkscape:connector-curvature="0"
       id="path228"
       d="m 213.00121,-11.008263 c -0.05,0.28 -0.1,0.61 -0.13,1 h 0.14 c 0.78,0.1100002 1.52,0.2200002 2.2,0.3400002 v -0.33 a 2,2 0 0 1 -0.41,-0.1200002 c -1.14,-0.58 -1.74,-0.88 -1.8,-0.89 z"
       class="cls-2" />
    <path
       style="fill:#397559"
       inkscape:connector-curvature="0"
       id="path230"
       d="m 214.89121,-20.368263 -0.08,0.42 c 0.14,0.12 0.84,0.63 2.09,1.53 l 0.64,-2.78 a 7.76,7.76 0 0 0 -2.55,0.8 0.11,0.11 0 0 1 -0.1,0.03 z"
       class="cls-2" />
    <path
       style="fill:#397559"
       inkscape:connector-curvature="0"
       id="path232"
       d="m 213.37121,-13.648263 -0.12,0.66 c 0.42,0.17 1.17,0.54 2.26,1.12 0.12,-0.84 0.25,-1.61 0.41,-2.29 v 0 a 7,7 0 0 0 -2,0.51 1,1 0 0 1 -0.55,0 z"
       class="cls-2" />
    <path
       style="fill:#397559"
       inkscape:connector-curvature="0"
       id="path234"
       d="m 214.32121,-17.908263 c -0.18,0.84 -0.34,1.58 -0.49,2.23 a 8.57,8.57 0 0 1 2.54,-0.47 v -0.28 a 1.42,1.42 0 0 1 -0.22,-0.13 z"
       class="cls-2" />
    <path
       style="fill:#397559"
       inkscape:connector-curvature="0"
       id="path236"
       d="m 172.63121,-18.778263 a 0.45,0.45 0 0 0 0.18,0.07 c 0.82,0.48 1.52,0.85 2.09,1.13 l 0.36,-1.82 -2.55,-0.23 a 6,6 0 0 0 -0.08,0.85 z"
       class="cls-2" />
    <path
       style="fill:#397559"
       inkscape:connector-curvature="0"
       id="path238"
       d="m 217.46121,-23.328263 c -0.66,-0.11 -1.26,-0.24 -1.82,-0.37 l -0.24,1.07 a 9.46,9.46 0 0 1 2.55,-0.51 v -0.23 a 1,1 0 0 1 -0.49,0.04 z"
       class="cls-2" />
    <path
       style="fill:#397559"
       inkscape:connector-curvature="0"
       id="path240"
       d="m 216.02121,-25.558263 c 0.56,0.13 1.15,0.25 1.77,0.37 a 0.86,0.86 0 0 1 0.53,0.28 l 0.08,-0.46 c -1.15,-0.24 -1.92,-0.41 -2.32,-0.51 z"
       class="cls-2" />
    <path
       style="fill:#397559"
       inkscape:connector-curvature="0"
       id="path242"
       d="m 273.83121,-40.688273 c -11.27,-2.71 -87.84,-20.8 -140,-24.62 -53.999996,-3.99999 -141.9999957,-5.63999 -181.079996,-3.46999 -36.55,2 -100.000004,10.09999 -142.820004,20.09999 -32.86,7.67 -45,11 -48.61,12.08 1.92,8.88 12.91,59.5 15.25,70.27 4.12,-1.55 16.72,-4.67 57.6,-11.86 28.28,-5 58.64,-9.84 63.05,-10.38 108.8800043,-13.2699998 202.760004,-12.5199998 287,2.29 43.84,7.7 68.26,14 74.34,15.59 z m -427.73,35.2100002 a 1.42,1.42 0 0 1 -0.92,0.68 q -2.44,0.62 -8.4,1.54 c -3.75,0.57 -6.45,1 -8.08,1.43 h -0.28 a 1.42,1.42 0 0 1 -0.67,0.31 q -4.43,0.89999998 -6.55,1.11999998 a 1.54,1.54 0 0 1 -1.12,-0.34 1.38,1.38 0 0 1 -0.55,-0.99999998 2.35,2.35 0 0 1 0.07,-0.69 c -0.1,-1.17 -0.3,-2.79 -0.59,-4.86 -0.37,-2.37 -0.61,-4.0500002 -0.71,-5.0000002 q -0.93,-8.85 -1.26,-11 -1.11,-7.12 -2.76,-9.69 a 0.8,0.8 0 0 1 -0.15,-0.31 0.87,0.87 0 0 1 -0.15,-0.31 1.55,1.55 0 0 1 0.16,-1.18 1.43,1.43 0 0 1 0.92,-0.69 31.8,31.8 0 0 1 7.13,-1.07 1.46,1.46 0 0 1 1.09,0.44 1.49,1.49 0 0 1 0.47,1.07 1.32,1.32 0 0 1 -0.14,0.6 1.64,1.64 0 0 1 0.19,0.55 q 1.29,9.26 3,19.08 c 0.1,0.59 0.23,1.45 0.39,2.56 0.16,1.11 0.29,2 0.41,2.6500002 0.12,0.65 0.27,1.41 0.48,2.27 a 22.92,22.92 0 0 0 0.69,2.34 c 1,-0.21 3.57,-0.63 7.63,-1.26 q 5.25,-0.79 8,-1.51 a 1.55,1.55 0 0 1 1.18,0.16 1.42,1.42 0 0 1 0.69,0.94 1.51,1.51 0 0 1 -0.17,1.17 z m 28.21,-4 a 1.39,1.39 0 0 1 -1.32,1.14 c -0.34,0.05 -0.84,0.11 -1.48,0.17 l -1.75,0.17 c -0.52,0.06 -1,0.12 -1.49,0.19 a 1.54,1.54 0 0 1 -1.71,-1.29 1.79,1.79 0 0 1 -0.24,-0.64 l -0.06,-0.4700002 a 12.77,12.77 0 0 1 -5.14,1.3000002 9,9 0 0 1 -7.85,-3.0000002 11.84,11.84 0 0 1 -2.64,-7.49 17.78,17.78 0 0 1 1.83,-8.4 12,12 0 0 1 5.66,-5.74 7.37,7.37 0 0 1 2.16,-0.59 c 0.88,-0.13 1.49,-0.2 1.84,-0.22 h 1.92 a 1.66,1.66 0 0 1 0.81,-0.36 l 1.51,-0.18 1.79,-0.19 c 0.67,-0.06 1.17,-0.11 1.51,-0.16 a 1.43,1.43 0 0 1 1.56,0.83 1.76,1.76 0 0 1 0.47,1 q 0.24,2.35 0.66,6.66 0.42,4.31 0.58,5.76 a 50.47,50.47 0 0 0 0.8,5 c 0.54,2.64 0.86,4.38 1,5.22 a 1.4,1.4 0 0 1 -0.42,1.2900002 z m 44.000004,-2.1600002 a 1.4,1.4 0 0 1 -0.84,0.78 1.57,1.57 0 0 1 -1.94,-0.89 l -6.33,-18.42 -3.53,0.38 c -0.08,1.44 -0.1,2.66 -0.09,3.68 a 55.25,55.25 0 0 0 0.31,5.86 c 0.32,3.06 0.5,5.1 0.55,6.15 a 1.51,1.51 0 0 1 -0.37,1 1.38,1.38 0 0 1 -1.3,1.19 c -0.66,0.07 -1.68,0.22 -3.06,0.46 -1.38,0.24 -2.480004,0.45 -3.230004,0.53 a 1.45,1.45 0 0 1 -1.35,-0.57 1.36,1.36 0 0 1 -0.58,-1 41.9,41.9 0 0 1 -0.37,-6.26 q 0,-3.28 0.39,-8.22 0.39,-4.94 0.39,-6 0.09,-1.86 0.19,-6.62 c 0.06,-3.17 0.15,-5.62 0.25,-7.35 a 1.37,1.37 0 0 1 0.43,-0.91 1.42,1.42 0 0 1 1.4,-1.15 c 1.080004,0 2.700004,-0.19 4.870004,-0.41 a 1.37,1.37 0 0 1 1.53,0.88 1.34,1.34 0 0 1 0.5,0.67 q 2.4,6.47 6.48,18.49 4.08,12.02 5.7,16.53 a 1.49,1.49 0 0 1 -0.03,1.2 z m 26.86,-1 a 12.51,12.51 0 0 1 -6.21,4.7800002 h -0.19 a 7.18,7.18 0 0 1 -3.11,1 8.79,8.79 0 0 1 -4.43,-0.66 9.9,9.9 0 0 1 -3.76,-2.6900002 9.2,9.2 0 0 1 -0.69,-1 9.54,9.54 0 0 1 -0.61,-1.1 l -0.45,-1 c -0.11,-0.25 -0.26,-0.61 -0.44,-1.09 l -0.32,-0.9 a 1.54,1.54 0 0 1 0.06,-1.15 1.35,1.35 0 0 1 0.82,-0.8 1.58,1.58 0 0 1 1.17,0 1.44,1.44 0 0 1 0.82,0.84 c 0,0.16 0.15,0.47 0.33,0.95 0.18,0.48 0.3,0.81 0.38,1 l 0.34,0.76 a 6.24,6.24 0 0 0 0.44,0.8 6.57,6.57 0 0 0 0.48,0.63 6.35,6.35 0 0 0 2.56,1.86 6.14,6.14 0 0 0 3,0.4400002 4,4 0 0 0 3.78,-3.6000002 36.82,36.82 0 0 0 0,-10.42 6.23,6.23 0 0 1 -5,2.08 5.71,5.71 0 0 1 -3.45,-1.34 7.58,7.58 0 0 1 -2.11,-3.11 15.59,15.59 0 0 1 3.22,-14.6 7,7 0 0 1 6.21,-2.21 1.47,1.47 0 0 1 0.5,-0.32 50,50 0 0 1 4.88,-1.6 1.53,1.53 0 0 1 1.13,0.16 1.48,1.48 0 0 1 0.7,0.85 1.77,1.77 0 0 1 0.44,0.78 94,94 0 0 1 2,15.21 q 0.48,10.96 -2.52,15.5 z m 26.95,-26 a 1.65,1.65 0 0 1 -0.71,1 1.36,1.36 0 0 1 -1.14,0.17 1.68,1.68 0 0 1 -0.94,-0.69 4.67,4.67 0 0 0 -2.14,-2.13 2.38,2.38 0 0 0 -1.85,0.14 6.19,6.19 0 0 0 -2,1.76 8.87,8.87 0 0 0 -1.54,2.88 c 0,0.7 0.05,1.7 0.09,3 0.04,1.3 0.08,2.18 0.09,2.59 q 0.27,7 0.85,11.18 a 1.89,1.89 0 0 1 0.25,0.7 1.59,1.59 0 0 1 -0.3,1.12 1.41,1.41 0 0 1 -1,0.58 57.74,57.74 0 0 1 -5.78,0.47 1.54,1.54 0 0 1 -1.56,-1.48 1.59,1.59 0 0 1 0.31,-1 l -0.36,-6.83 q -0.31,-5.35 -0.62,-8.81 c -0.2,-2.3 -0.47,-4.58 -0.81,-6.81 v -0.1 a 1.6,1.6 0 0 1 -0.16,-0.85 1.54,1.54 0 0 1 0.57,-1 1.36,1.36 0 0 1 1.1,-0.34 c 0.38,0.06 0.77,0.1 1.15,0.14 l 0.73,0.08 h 0.38 a 3,3 0 0 0 0.41,0 h 0.47 0.9 c 0.44,0 0.94,0 1.47,0 a 1.36,1.36 0 0 1 1,0.4 1.53,1.53 0 0 1 0.5,1 v 0.1 l 0.06,0.42 a 8.22,8.22 0 0 1 2.61,-2 5.08,5.08 0 0 1 4.17,-0.2 7.41,7.41 0 0 1 3.69,3.38 1.36,1.36 0 0 1 0.08,1.16 z m 27.26000034,10.43 a 12.46,12.46 0 0 1 -3.32000004,7.69 11,11 0 0 1 -8.5300003,3.14 11.73,11.73 0 0 1 -4.46,-0.85 9,9 0 0 1 -3.06,-2.48 9.17,9.17 0 0 1 -1.74,-3.49 21.22,21.22 0 0 1 -0.6,-4.05 14.23,14.23 0 0 1 0.35,-4.11 21.49,21.49 0 0 1 2.37,-6.45 12,12 0 0 1 4.22,-4.56 2.37,2.37 0 0 1 0.71,-0.43 9.5,9.5 0 0 1 2,-0.71 10.36,10.36 0 0 1 4.1700003,0.23 1.52,1.52 0 0 1 1.14,0.28 15.26,15.26 0 0 1 5.35,6.95 18.76,18.76 0 0 1 1.37000004,8.87 z m 26.05999966,4.14 a 9,9 0 0 1 -3.15,5 9.58,9.58 0 0 1 -5.25,2 11.39,11.39 0 0 1 -5.58,-0.92 11.24,11.24 0 0 1 -4.5599997,-3.58 10.47,10.47 0 0 1 -1.73,-3.7 15.66,15.66 0 0 1 -0.53,-4.13 27.89,27.89 0 0 1 0.29,-3.82 13.72,13.72 0 0 1 2.45,-5.82 10.88,10.88 0 0 1 4.2599997,-3.48 1,1 0 0 1 0.48,-0.18 8.6,8.6 0 0 1 2.95,-0.58 8,8 0 0 1 6.09,2.29 9,9 0 0 1 2.62,6.65 2.42,2.42 0 0 1 -0.06,0.47 1.53,1.53 0 0 1 -0.37,1.11 1.38,1.38 0 0 1 -1,0.53 c -1.17,0.08 -2.58,0.11 -4.22,0.09 h -4 a 1.88,1.88 0 0 1 -0.43,0 c 0,0.7 -0.06,1.28 -0.07,1.76 -0.18,4 -0.23,7.36 -0.13,10 a 8.74,8.74 0 0 0 3.36,0.42 6.49,6.49 0 0 0 3.58,-1.37 6.36,6.36 0 0 0 2.13,-3.44 1.35,1.35 0 0 1 0.7,-0.91 1.52,1.52 0 0 1 1.16,-0.16 1.43,1.43 0 0 1 0.92,0.7 1.59,1.59 0 0 1 0.06,1.1 z m 25.55,1.86 a 15.69,15.69 0 0 1 -6.9,4.52 9.84,9.84 0 0 1 -5.33,0.4 9.74,9.74 0 0 1 -4.78,-2.49 15.85,15.85 0 0 1 -1.38,-1.6 8.13,8.13 0 0 1 -1.31,-1.87 13.33,13.33 0 0 1 -0.76,-6 21.27,21.27 0 0 1 1.59,-6.58 15.65,15.65 0 0 1 4,-5.69 7.57,7.57 0 0 1 5.91,-1.89 6.17,6.17 0 0 1 3.24,1.1 9,9 0 0 1 2.27,2.64 1.46,1.46 0 0 1 0.16,1.14 1.49,1.49 0 0 1 -0.69,0.93 1.38,1.38 0 0 1 -1.14,0.16 1.44,1.44 0 0 1 -0.93,-0.68 6.15,6.15 0 0 0 -1.39,-1.7 3.33,3.33 0 0 0 -1.79,-0.56 5.36,5.36 0 0 0 -2,0.23 1.72,1.72 0 0 1 0,0.43 q -0.07,3.18 -0.54,9.55 -0.47,6.37 -0.54,9.55 v 0.28 a 7.22,7.22 0 0 0 4.32,-0.18 12.28,12.28 0 0 0 5.55,-3.61 1.5353257,1.5353257 0 0 1 2.33,2 z m 27.36,-4.23 a 12.43,12.43 0 0 1 -3.59,7.56 11,11 0 0 1 -8.64,2.83 11.82,11.82 0 0 1 -4.43,-1 8.9,8.9 0 0 1 -3,-2.59 9.13,9.13 0 0 1 -1.61,-3.55 21.76,21.76 0 0 1 -0.45,-4.07 14,14 0 0 1 0.5,-4.09 21.51,21.51 0 0 1 2.59,-6.36 12,12 0 0 1 4.38,-4.41 2.49,2.49 0 0 1 0.73,-0.4 9.62,9.62 0 0 1 2.06,-0.64 10.34,10.34 0 0 1 4.16,0.38 1.46,1.46 0 0 1 1.13,0.33 15.12,15.12 0 0 1 5.09,7.13 18.53,18.53 0 0 1 1.05,8.91 z m 15.54,-21.81 q -0.78,6 -1.08,15 c 0,0.83 0,3.08 -0.13,6.76 -0.13,3.68 -0.16,6.53 -0.25,8.52 a 1.41,1.41 0 0 1 -0.49,1 1.46,1.46 0 0 1 -1.09,0.41 2.3,2.3 0 0 1 -0.42,-0.07 1.29,1.29 0 0 1 -0.39,0 c -0.34,0 -1.93,0 -4.74,0 a 1.37,1.37 0 0 1 -1.08,-0.42 1.53,1.53 0 0 1 -0.47,-1.07 1.75,1.75 0 0 1 0.22,-0.8 q 0.12,-2.92 0.24,-8.27 0.12,-5.35 0.12,-6.67 0.3,-9.15 1.1,-15.34 a 2.76,2.76 0 0 1 0.16,-0.51 1.41,1.41 0 0 1 1.42,-1 43.93,43.93 0 0 1 5.5,0.29 1.41,1.41 0 0 1 0.88,0.46 1.69,1.69 0 0 1 0.44,0.92 1.46,1.46 0 0 1 0.06,0.79 z m 25.899996,23.81 a 12.42,12.42 0 0 1 -3.72,7.5 11,11 0 0 1 -8.7,2.67 11.67,11.67 0 0 1 -4.4,-1.09 8.85,8.85 0 0 1 -2.93,-2.65 9.13,9.13 0 0 1 -1.539996,-3.57 22.09,22.09 0 0 1 -0.38,-4.08 13.92,13.92 0 0 1 0.58,-4.08 21.46,21.46 0 0 1 2.709996,-6.32 12.07,12.07 0 0 1 4.46,-4.32 2.25,2.25 0 0 1 0.73,-0.39 9.67,9.67 0 0 1 2.08,-0.6 10.26,10.26 0 0 1 4.15,0.46 1.48,1.48 0 0 1 1.12,0.34 15.13,15.13 0 0 1 5,7.23 18.48,18.48 0 0 1 0.82,8.89 z m 30.64,1.47 q -1,10.72 -4.68,14.7900002 a 12.55,12.55 0 0 1 -6.84,3.83 h -0.19 a 7.07,7.07 0 0 1 -3.23,0.57 8.73,8.73 0 0 1 -4.28,-1.28 10,10 0 0 1 -3.32,-3.19 9.14,9.14 0 0 1 -0.54,-1 9.63,9.63 0 0 1 -0.44,-1.1800002 l -0.3,-1.07 c -0.08,-0.26 -0.17,-0.63 -0.28,-1.13 -0.11,-0.5 -0.17,-0.82 -0.19,-0.94 a 1.63,1.63 0 0 1 0.22,-1.13 1.38,1.38 0 0 1 0.93,-0.67 1.61,1.61 0 0 1 1.15,0.2 1.42,1.42 0 0 1 0.69,1 c 0,0.16 0.09,0.49 0.19,1 0.1,0.51 0.19,0.85 0.24,1 0.05,0.15 0.12,0.47 0.22,0.81 a 7.05,7.05 0 0 0 0.32,0.85 7.87,7.87 0 0 0 0.38,0.6900002 6.25,6.25 0 0 0 2.27,2.21 6.14,6.14 0 0 0 2.88,0.88 4,4 0 0 0 4.27,-3 37.07,37.07 0 0 0 1.55,-10.3100002 6.22,6.22 0 0 1 -5.28,1.33 5.63,5.63 0 0 1 -3.28,-1.94 7.49,7.49 0 0 1 -1.64,-3.38 15.59,15.59 0 0 1 5.3,-14 7,7 0 0 1 6.46,-1.29 1.61,1.61 0 0 1 0.55,-0.25 c 1.83,-0.4 3.52,-0.69 5.05,-0.87 a 1.53,1.53 0 0 1 1.1,0.32 1.5,1.5 0 0 1 0.57,0.94 1.72,1.72 0 0 1 0.32,0.84 92.91,92.91 0 0 1 -0.19,15.36 z m 14.46,-0.28 q -1,8 -1.2,11.57 a 2.6,2.6 0 0 1 -2.3,1.7300002 28.49,28.49 0 0 1 -5.19,-1.0000002 1.37,1.37 0 0 1 -0.89,-0.72 1.39,1.39 0 0 1 -0.09,-1.16 v -0.19 -0.23 q 1.64,-14 2,-22.65 a 1.32,1.32 0 0 1 0.39,-0.91 1.45,1.45 0 0 1 0.57,-0.8 1.53,1.53 0 0 1 0.94,-0.27 53.23,53.23 0 0 1 5.64,0.8 1.42,1.42 0 0 1 0.86,0.55 1.52,1.52 0 0 1 0.34,1 0.88,0.88 0 0 1 0.05,0.39 q -0.12,3.7 -1.12,11.89 z m 0.22,-16.83 a 4.75,4.75 0 0 1 -3,1.42 3.19,3.19 0 0 1 -3.16,-1.18 q -1.26,-1.57 0.14,-4.14 a 4,4 0 0 1 1.65,-1.86 3.35,3.35 0 0 1 1.07,-0.16 h 0.23 a 1.16,1.16 0 0 1 1.51,0.18 c 0.12,0.11 0.26,0.24 0.44,0.38 l 0.48,0.39 a 5.17,5.17 0 0 1 1.14,1.28 2.87,2.87 0 0 1 -0.53,3.69 z m 24.27,27.89 a 15.67,15.67 0 0 1 -7.4,3.6600002 9.91,9.91 0 0 1 -5.33,-0.26 9.7,9.7 0 0 1 -4.44,-3.0600002 14.74,14.74 0 0 1 -1.18,-1.75 8,8 0 0 1 -1,-2 13.32,13.32 0 0 1 0,-6.07 21.14,21.14 0 0 1 2.38,-6.33 15.7,15.7 0 0 1 4.71,-5.16 7.59,7.59 0 0 1 6.1,-1.16 6.31,6.31 0 0 1 3.09,1.49 9.09,9.09 0 0 1 1.92,2.89 1.46,1.46 0 0 1 0,1.16 1.48,1.48 0 0 1 -0.79,0.84 1.42,1.42 0 0 1 -1.16,0 1.48,1.48 0 0 1 -0.84,-0.79 5.84,5.84 0 0 0 -1.17,-1.85 3.25,3.25 0 0 0 -1.7,-0.78 5.09,5.09 0 0 0 -2,0 2,2 0 0 1 0,0.43 q -0.47,3.13 -1.7,9.41 c -0.83,4.18 -1.4,7.31 -1.7,9.41 v 0.28 a 7.35,7.35 0 0 0 4.32,0.35 12.36,12.36 0 0 0 5.94,-2.91 1.56,1.56 0 0 1 2.15,0.08 1.49,1.49 0 0 1 0.39,1.08 1.46,1.46 0 0 1 -0.62,1.04 z m 32.24,-13.53 c -0.34,1.55 -0.82,3.72 -1.45,6.53 -0.63,2.81 -1,4.7 -1.25,5.66 a 47.82,47.82 0 0 0 -0.8,5.0000002 c -0.31,2.68 -0.55,4.44 -0.7,5.28 a 1.38,1.38 0 0 1 -0.76,1.06 1.42,1.42 0 0 1 -1.62,0.68 c -0.34,-0.06 -0.83,-0.16 -1.46,-0.31 l -1.72,-0.38 -1.47,-0.28 a 1.47,1.47 0 0 1 -1,-0.63 1.48,1.48 0 0 1 -0.25,-1.13 1.58,1.58 0 0 1 0,-0.68 l 0.09,-0.47 a 13.06,13.06 0 0 1 -5.29,-0.36 9,9 0 0 1 -6.52,-5.3100002 11.74,11.74 0 0 1 -0.18,-7.93 17.85,17.85 0 0 1 4.36,-7.42 12,12 0 0 1 7.16,-3.69 7.45,7.45 0 0 1 2.25,0.12 c 0.87,0.15 1.47,0.28 1.81,0.37 l 1.82,0.61 a 1.55,1.55 0 0 1 0.88,-0.08 c 0.47,0.08 1,0.18 1.49,0.29 l 1.76,0.38 c 0.65,0.15 1.15,0.25 1.49,0.32 a 1.42,1.42 0 0 1 1.22,1.27 1.79,1.79 0 0 1 0.11,1.1 z"
       class="cls-2" />
    <path
       style="fill:#397559"
       inkscape:connector-curvature="0"
       id="path244"
       d="m 141.50121,-36.508263 a 4.29,4.29 0 0 0 -3.11,0.91 10.71,10.71 0 0 0 -3.46,5 10.56,10.56 0 0 0 -0.66,5.95 3.09,3.09 0 0 0 2.46,2.79 2.88,2.88 0 0 0 2.13,-0.25 8.63,8.63 0 0 0 2.16,-1.86 1.61,1.61 0 0 1 0.45,-0.35 c 0,-0.82 0,-2.14 -0.05,-4 -0.05,-1.86 0,-3.36 0,-4.66 0,-1.3 0.03,-2.43 0.08,-3.53 z"
       class="cls-2" />
    <path
       style="fill:#397559"
       inkscape:connector-curvature="0"
       id="path246"
       d="m 174.50121,-25.598263 c 0.37,0.31 0.94,0.76 1.72,1.35 0.12,-0.65 0.23,-1.26 0.31,-1.82 a 17,17 0 0 0 -1.89,0.15 z"
       class="cls-2" />
    <path
       style="fill:#397559"
       inkscape:connector-curvature="0"
       id="path248"
       d="m 212.63121,-8.1382628 v 0.19 a 16.42,16.42 0 0 1 2.21,1.36 c 0.06,-0.32 0.11,-0.71 0.16,-1.18 -0.65,-0.12 -1.39,-0.23 -2.2,-0.35 z"
       class="cls-2" />
    <path
       style="fill:#397559"
       inkscape:connector-curvature="0"
       id="path250"
       d="m 172.98121,-21.508263 2.65,0.25 0.18,-0.89 -2.1,-1.65 a 14.84,14.84 0 0 0 -0.73,2.29 z"
       class="cls-2" />
    <path
       style="fill:#397559"
       inkscape:connector-curvature="0"
       id="path252"
       d="m 212.25121,-5.2482628 1.81,0.42 c -0.6,-0.43 -1.18,-0.8 -1.73,-1.13 a 5,5 0 0 1 -0.08,0.71 z"
       class="cls-2" />
    <path
       style="fill:#397559"
       inkscape:connector-curvature="0"
       id="path254"
       d="m 209.06121,-27.038263 a 9.08,9.08 0 0 0 -5.41,2.91 14.13,14.13 0 0 0 -3.5,6 8.82,8.82 0 0 0 0,5.94 6,6 0 0 0 4.43,3.5300002 10.75,10.75 0 0 0 5,0.17 l 0.17,-1.47 a 52.67,52.67 0 0 1 0.85,-5.2900002 c 0.22,-1.09 0.62,-2.85 1.18,-5.31 0.56,-2.46 1,-4.34 1.26,-5.68 a 10.42,10.42 0 0 0 -3.98,-0.8 z"
       class="cls-2" />
    <path
       style="fill:#397559"
       inkscape:connector-curvature="0"
       id="path256"
       d="m 87.431214,-35.628263 v 0.71 h 2.42 v -0.85 a 1.76,1.76 0 0 1 -0.48,0 z"
       class="cls-2" />
    <path
       style="fill:#397559"
       inkscape:connector-curvature="0"
       id="path258"
       d="m 87.261214,-29.508263 -0.06,2.56 a 11.06,11.06 0 0 1 2.46,-0.93 v -0.43 l -1.4,-0.68 z"
       class="cls-2" />
    <path
       style="fill:#397559"
       inkscape:connector-curvature="0"
       id="path260"
       d="m 87.101214,-22.488263 c 0,1.05 0,2 -0.08,2.9 1,0 1.82,0 2.43,0 q 0,-0.9 0,-2 a 0.39,0.39 0 0 1 -0.14,0 23.67,23.67 0 0 1 -2.21,-0.9 z"
       class="cls-2" />
    <path
       style="fill:#397559"
       inkscape:connector-curvature="0"
       id="path262"
       d="m 87.311214,-31.638263 q 0.56,0.3 1.86,0.93 l 0.55,0.31 c 0,-0.95 0,-1.82 0.07,-2.61 h -2.42 z"
       class="cls-2" />
    <path
       style="fill:#397559"
       inkscape:connector-curvature="0"
       id="path264"
       d="m 87.151214,-24.618263 v 0 a 16,16 0 0 0 2.43,1.06 c 0,-0.7 0,-1.49 0.05,-2.37 a 5.89,5.89 0 0 0 -2.33,1.23 0.2,0.2 0 0 1 -0.15,0.08 z"
       class="cls-2" />
    <path
       style="fill:#397559"
       inkscape:connector-curvature="0"
       id="path266"
       d="m 36.681214,-36.338263 c 0,-0.51 0,-1 0.09,-1.47 a 12.84,12.84 0 0 0 -1.09,1.63 z"
       class="cls-2" />
    <path
       style="fill:#397559"
       inkscape:connector-curvature="0"
       id="path268"
       d="m 87.601214,-39.508263 -0.08,2 1.71,-0.07 0.71,-0.06 v -0.86 l -2.19,-0.9 z"
       class="cls-2" />
    <path
       style="fill:#397559"
       inkscape:connector-curvature="0"
       id="path270"
       d="m 60.631214,-32.488263 a 21,21 0 0 0 2.48,1.18 c 0.07,-1.11 0.13,-2.07 0.19,-2.89 q -1.38,0.33 -2.25,0.63 z"
       class="cls-2" />
    <path
       style="fill:#397559"
       inkscape:connector-curvature="0"
       id="path272"
       d="m 59.711214,-27.818263 1.87,-0.36 1.38,-0.24 v -1 a 20.27,20.27 0 0 1 -2.85,-1.24 18.32,18.32 0 0 0 -0.4,2.84 z"
       class="cls-2" />
    <path
       style="fill:#397559"
       inkscape:connector-curvature="0"
       id="path274"
       d="m 59.741214,-25.918263 a 9.5,9.5 0 0 0 0.27,1.72 c 0.28,0.1 0.64,0.23 1.08,0.37 l 1.55,0.53 q 0.09,-1.42 0.21,-3.18 l -1,0.16 z"
       class="cls-2" />
    <path
       style="fill:#397559"
       inkscape:connector-curvature="0"
       id="path276"
       d="m 60.891214,-21.888263 a 5,5 0 0 0 1.6,1.76 v -1.23 0 a 14.06,14.06 0 0 1 -1.6,-0.53 z"
       class="cls-2" />
    <path
       style="fill:#397559"
       inkscape:connector-curvature="0"
       id="path278"
       d="m 70.711214,-39.688263 -0.66,-0.14 a 4.84,4.84 0 0 1 -0.61,-0.14 l -0.52,-0.11 a 5,5 0 0 0 -0.54,-0.07 h -0.49 a 3.93,3.93 0 0 0 -0.48,0.06 5.51,5.51 0 0 0 -0.77,0.21 c -0.11,2.27 -0.3,5.71 -0.57,10.3 -0.27,4.59 -0.45,8.06 -0.53,10.4 h 0.71 a 7.89,7.89 0 0 0 6.29,-2 9.43,9.43 0 0 0 2.67,-5.74 15.48,15.48 0 0 0 -0.78,-7.08 13,13 0 0 0 -3.72,-5.69 z"
       class="cls-2" />
    <path
       style="fill:#397559"
       inkscape:connector-curvature="0"
       id="path280"
       d="m 87.891214,-43.398263 c -0.06,0.6 -0.11,1.23 -0.13,1.9 l 0.74,0.32 1.59,0.63 c 0.1,-1.61 0.23,-3.14 0.39,-4.58 a 15.65,15.65 0 0 0 -2.4,1.6 0.64,0.64 0 0 1 -0.19,0.13 z"
       class="cls-2" />
    <path
       style="fill:#397559"
       inkscape:connector-curvature="0"
       id="path282"
       d="m 63.371214,-36.138263 c 0,-0.51 0.08,-1 0.1,-1.42 a 9.61,9.61 0 0 0 -1.25,1.66 z"
       class="cls-2" />
    <path
       style="fill:#397559"
       inkscape:connector-curvature="0"
       id="path284"
       d="m 101.20121,-26.198263 1.87,-0.32 1.39,-0.22 0.05,-0.94 a 20.85,20.85 0 0 1 -2.83,-1.29 17.11,17.11 0 0 0 -0.48,2.77 z"
       class="cls-2" />
    <path
       style="fill:#397559"
       inkscape:connector-curvature="0"
       id="path286"
       d="m 102.31121,-20.248263 a 5.07,5.07 0 0 0 1.56,1.8 l 0.07,-1.23 h -0.05 a 12.37,12.37 0 0 1 -1.58,-0.57 z"
       class="cls-2" />
    <path
       style="fill:#397559"
       inkscape:connector-curvature="0"
       id="path288"
       d="m 101.19121,-24.248263 a 9.49,9.49 0 0 0 0.24,1.73 l 1.07,0.39 1.54,0.55 0.27,-3.17 -1,0.14 z"
       class="cls-2" />
    <path
       style="fill:#397559"
       inkscape:connector-curvature="0"
       id="path290"
       d="m 144.75121,-36.698263 -0.21,0.27 c 0,0.31 0,0.63 0,1 l 1.39,-1.43 z"
       class="cls-2" />
    <path
       style="fill:#397559"
       inkscape:connector-curvature="0"
       id="path292"
       d="m 112.41121,-37.858263 -0.65,-0.15 a 6,6 0 0 1 -0.61,-0.15 4.62,4.62 0 0 0 -0.52,-0.12 3.52,3.52 0 0 0 -0.54,-0.08 3.38,3.38 0 0 0 -0.45,0 3.91,3.91 0 0 0 -0.48,0 7.2,7.2 0 0 0 -0.77,0.19 c -0.16,2.27 -0.41,5.71 -0.76,10.29 -0.35,4.58 -0.6,8.06 -0.72,10.39 h 0.71 a 7.85,7.85 0 0 0 6.32,-1.85 9.4,9.4 0 0 0 2.77,-5.69 15.43,15.43 0 0 0 -0.64,-7.09 13.07,13.07 0 0 0 -3.66,-5.74 z"
       class="cls-2" />
    <path
       style="fill:#397559"
       inkscape:connector-curvature="0"
       id="path294"
       d="m 88.121214,-45.898263 a 12.21,12.21 0 0 1 2.58,-1.46 v -0.14 c -0.79,-0.06 -1.59,-0.1 -2.42,-0.1 -0.05,0.53 -0.11,1.1 -0.16,1.7 z"
       class="cls-2" />
    <path
       style="fill:#397559"
       inkscape:connector-curvature="0"
       id="path296"
       d="m 105.01121,-34.448263 c 0.06,-0.5 0.1,-1 0.12,-1.42 a 9.54,9.54 0 0 0 -1.24,1.62 z"
       class="cls-2" />
    <path
       style="fill:#397559"
       inkscape:connector-curvature="0"
       id="path298"
       d="m 102.21121,-30.848263 a 19.32,19.32 0 0 0 2.45,1.23 c 0.09,-1.11 0.17,-2.07 0.25,-2.89 -0.93,0.21 -1.69,0.4 -2.27,0.59 z"
       class="cls-2" />
  </g>
</svg>
